<mxfile host="app.diagrams.net" modified="2024-06-17T12:07:42.032Z" agent="Mozilla/5.0 (X11; Ubuntu; Linux x86_64; rv:127.0) Gecko/20100101 Firefox/127.0" etag="HGwmLMjMCk2yvxLLfV-D" version="24.5.4" type="device">
  <diagram name="Page-1" id="wNrDZnNWnd2IKsuvQdwE">
    <mxGraphModel dx="1195" dy="661" grid="1" gridSize="10" guides="1" tooltips="1" connect="1" arrows="1" fold="1" page="1" pageScale="1" pageWidth="850" pageHeight="1100" math="0" shadow="0">
      <root>
        <mxCell id="0" />
        <mxCell id="1" parent="0" />
        <mxCell id="o-0Yop4IW0gd_mFrER2B-9" value="" style="edgeStyle=orthogonalEdgeStyle;rounded=0;orthogonalLoop=1;jettySize=auto;html=1;entryX=0;entryY=0.5;entryDx=0;entryDy=0;entryPerimeter=0;exitX=0.5;exitY=0;exitDx=0;exitDy=0;exitPerimeter=0;" edge="1" parent="1" source="o-0Yop4IW0gd_mFrER2B-1" target="o-0Yop4IW0gd_mFrER2B-5">
          <mxGeometry relative="1" as="geometry">
            <mxPoint x="60" y="340" as="sourcePoint" />
            <mxPoint x="135" y="199.9999999999999" as="targetPoint" />
          </mxGeometry>
        </mxCell>
        <mxCell id="o-0Yop4IW0gd_mFrER2B-20" value="" style="edgeStyle=orthogonalEdgeStyle;rounded=0;orthogonalLoop=1;jettySize=auto;html=1;entryX=0;entryY=0.5;entryDx=0;entryDy=0;" edge="1" parent="1" target="o-0Yop4IW0gd_mFrER2B-16">
          <mxGeometry relative="1" as="geometry">
            <mxPoint x="130" y="400" as="sourcePoint" />
            <mxPoint x="210" y="400" as="targetPoint" />
          </mxGeometry>
        </mxCell>
        <mxCell id="o-0Yop4IW0gd_mFrER2B-1" value="&lt;div&gt;User&lt;/div&gt;" style="shape=umlActor;verticalLabelPosition=bottom;verticalAlign=top;html=1;outlineConnect=0;" vertex="1" parent="1">
          <mxGeometry x="100" y="370" width="30" height="60" as="geometry" />
        </mxCell>
        <mxCell id="o-0Yop4IW0gd_mFrER2B-13" value="" style="edgeStyle=orthogonalEdgeStyle;rounded=0;orthogonalLoop=1;jettySize=auto;html=1;entryX=0;entryY=0.5;entryDx=0;entryDy=0;exitX=0.5;exitY=0;exitDx=0;exitDy=0;exitPerimeter=0;" edge="1" parent="1" source="o-0Yop4IW0gd_mFrER2B-5" target="o-0Yop4IW0gd_mFrER2B-11">
          <mxGeometry relative="1" as="geometry">
            <mxPoint x="270" y="75" as="targetPoint" />
            <Array as="points">
              <mxPoint x="205" y="60" />
            </Array>
          </mxGeometry>
        </mxCell>
        <mxCell id="o-0Yop4IW0gd_mFrER2B-5" value="&lt;div&gt;Gym Access NFT&lt;br&gt;&lt;/div&gt;" style="shape=note;whiteSpace=wrap;html=1;backgroundOutline=1;darkOpacity=0.05;" vertex="1" parent="1">
          <mxGeometry x="170" y="170" width="70" height="90" as="geometry" />
        </mxCell>
        <mxCell id="o-0Yop4IW0gd_mFrER2B-17" value="" style="edgeStyle=orthogonalEdgeStyle;rounded=0;orthogonalLoop=1;jettySize=auto;html=1;entryX=0.5;entryY=1;entryDx=0;entryDy=0;exitX=0.5;exitY=0;exitDx=0;exitDy=0;" edge="1" parent="1" source="o-0Yop4IW0gd_mFrER2B-16" target="o-0Yop4IW0gd_mFrER2B-6">
          <mxGeometry relative="1" as="geometry">
            <mxPoint x="610" y="300" as="sourcePoint" />
          </mxGeometry>
        </mxCell>
        <mxCell id="o-0Yop4IW0gd_mFrER2B-6" value="&lt;div&gt;DeGym DApp&lt;/div&gt;" style="whiteSpace=wrap;html=1;aspect=fixed;" vertex="1" parent="1">
          <mxGeometry x="370" y="165" width="100" height="100" as="geometry" />
        </mxCell>
        <mxCell id="o-0Yop4IW0gd_mFrER2B-10" value="Buys" style="text;html=1;align=center;verticalAlign=middle;whiteSpace=wrap;rounded=0;" vertex="1" parent="1">
          <mxGeometry x="60" y="280" width="60" height="30" as="geometry" />
        </mxCell>
        <mxCell id="o-0Yop4IW0gd_mFrER2B-32" value="" style="edgeStyle=orthogonalEdgeStyle;rounded=0;orthogonalLoop=1;jettySize=auto;html=1;" edge="1" parent="1" source="o-0Yop4IW0gd_mFrER2B-11" target="o-0Yop4IW0gd_mFrER2B-31">
          <mxGeometry relative="1" as="geometry" />
        </mxCell>
        <mxCell id="o-0Yop4IW0gd_mFrER2B-11" value="NFT Sales Stock" style="rounded=0;whiteSpace=wrap;html=1;" vertex="1" parent="1">
          <mxGeometry x="360" y="30" width="120" height="60" as="geometry" />
        </mxCell>
        <mxCell id="o-0Yop4IW0gd_mFrER2B-14" value="Stock Tether" style="text;html=1;align=center;verticalAlign=middle;whiteSpace=wrap;rounded=0;" vertex="1" parent="1">
          <mxGeometry x="210" y="70" width="60" height="30" as="geometry" />
        </mxCell>
        <mxCell id="o-0Yop4IW0gd_mFrER2B-15" style="edgeStyle=orthogonalEdgeStyle;rounded=0;orthogonalLoop=1;jettySize=auto;html=1;entryX=0;entryY=0;entryDx=70;entryDy=60;entryPerimeter=0;" edge="1" parent="1" source="o-0Yop4IW0gd_mFrER2B-6" target="o-0Yop4IW0gd_mFrER2B-5">
          <mxGeometry relative="1" as="geometry">
            <Array as="points">
              <mxPoint x="340" y="230" />
              <mxPoint x="340" y="230" />
            </Array>
          </mxGeometry>
        </mxCell>
        <mxCell id="o-0Yop4IW0gd_mFrER2B-16" value="&lt;div&gt;Checkin&lt;br&gt;&lt;/div&gt;" style="whiteSpace=wrap;html=1;aspect=fixed;" vertex="1" parent="1">
          <mxGeometry x="370" y="350" width="100" height="100" as="geometry" />
        </mxCell>
        <mxCell id="o-0Yop4IW0gd_mFrER2B-18" value="Mint NFT" style="text;html=1;align=center;verticalAlign=middle;whiteSpace=wrap;rounded=0;" vertex="1" parent="1">
          <mxGeometry x="280" y="200" width="60" height="30" as="geometry" />
        </mxCell>
        <mxCell id="o-0Yop4IW0gd_mFrER2B-21" value="Sign Checkin" style="text;html=1;align=center;verticalAlign=middle;whiteSpace=wrap;rounded=0;" vertex="1" parent="1">
          <mxGeometry x="210" y="370" width="60" height="30" as="geometry" />
        </mxCell>
        <mxCell id="o-0Yop4IW0gd_mFrER2B-24" value="" style="edgeStyle=orthogonalEdgeStyle;rounded=0;orthogonalLoop=1;jettySize=auto;html=1;entryX=1;entryY=0.5;entryDx=0;entryDy=0;" edge="1" parent="1" source="o-0Yop4IW0gd_mFrER2B-22" target="o-0Yop4IW0gd_mFrER2B-16">
          <mxGeometry relative="1" as="geometry">
            <mxPoint x="560" y="400" as="targetPoint" />
          </mxGeometry>
        </mxCell>
        <mxCell id="o-0Yop4IW0gd_mFrER2B-22" value="Gym" style="whiteSpace=wrap;html=1;aspect=fixed;" vertex="1" parent="1">
          <mxGeometry x="640" y="360" width="80" height="80" as="geometry" />
        </mxCell>
        <mxCell id="o-0Yop4IW0gd_mFrER2B-25" value="Start Checkin" style="text;html=1;align=center;verticalAlign=middle;whiteSpace=wrap;rounded=0;" vertex="1" parent="1">
          <mxGeometry x="530" y="370" width="60" height="30" as="geometry" />
        </mxCell>
        <mxCell id="o-0Yop4IW0gd_mFrER2B-28" value="Approve Checkin" style="text;html=1;align=center;verticalAlign=middle;whiteSpace=wrap;rounded=0;" vertex="1" parent="1">
          <mxGeometry x="425" y="300" width="75" height="30" as="geometry" />
        </mxCell>
        <mxCell id="o-0Yop4IW0gd_mFrER2B-29" value="Pays" style="text;html=1;align=center;verticalAlign=middle;whiteSpace=wrap;rounded=0;" vertex="1" parent="1">
          <mxGeometry x="570" y="240" width="60" height="30" as="geometry" />
        </mxCell>
        <mxCell id="o-0Yop4IW0gd_mFrER2B-31" value="Stakers" style="rounded=0;whiteSpace=wrap;html=1;" vertex="1" parent="1">
          <mxGeometry x="560" y="120" width="80" height="80" as="geometry" />
        </mxCell>
        <mxCell id="o-0Yop4IW0gd_mFrER2B-33" value="" style="edgeStyle=orthogonalEdgeStyle;rounded=0;orthogonalLoop=1;jettySize=auto;html=1;entryX=0.5;entryY=1;entryDx=0;entryDy=0;exitX=0.5;exitY=0;exitDx=0;exitDy=0;" edge="1" parent="1" source="o-0Yop4IW0gd_mFrER2B-6" target="o-0Yop4IW0gd_mFrER2B-11">
          <mxGeometry relative="1" as="geometry">
            <mxPoint x="430" y="360" as="sourcePoint" />
            <mxPoint x="430" y="275" as="targetPoint" />
          </mxGeometry>
        </mxCell>
        <mxCell id="o-0Yop4IW0gd_mFrER2B-34" value="Trigger Payment" style="text;html=1;align=center;verticalAlign=middle;whiteSpace=wrap;rounded=0;" vertex="1" parent="1">
          <mxGeometry x="360" y="120" width="60" height="30" as="geometry" />
        </mxCell>
        <mxCell id="o-0Yop4IW0gd_mFrER2B-35" value="Reward" style="text;html=1;align=center;verticalAlign=middle;whiteSpace=wrap;rounded=0;" vertex="1" parent="1">
          <mxGeometry x="540" y="30" width="60" height="30" as="geometry" />
        </mxCell>
        <mxCell id="o-0Yop4IW0gd_mFrER2B-36" value="" style="edgeStyle=orthogonalEdgeStyle;rounded=0;orthogonalLoop=1;jettySize=auto;html=1;entryX=0.5;entryY=0;entryDx=0;entryDy=0;exitX=1;exitY=0.75;exitDx=0;exitDy=0;" edge="1" parent="1" source="o-0Yop4IW0gd_mFrER2B-11" target="o-0Yop4IW0gd_mFrER2B-22">
          <mxGeometry relative="1" as="geometry">
            <mxPoint x="490" y="70" as="sourcePoint" />
            <mxPoint x="750" y="70" as="targetPoint" />
            <Array as="points">
              <mxPoint x="500" y="75" />
              <mxPoint x="500" y="240" />
              <mxPoint x="680" y="240" />
            </Array>
          </mxGeometry>
        </mxCell>
      </root>
    </mxGraphModel>
  </diagram>
</mxfile>
